<svg xmlns="http://www.w3.org/2000/svg" data-name="Layer 2" viewBox="0 0 648 846">
  <path d="M311.55 316.13c-27.8 0-50.4-22.62-50.4-50.41s22.6-50.41 50.4-50.41 50.41 22.61 50.41 50.4-22.61 50.42-50.4 50.42m0-89.15c-21.36 0-38.74 17.38-38.74 38.74s17.38 38.74 38.74 38.74 38.75-17.38 38.75-38.74-17.38-38.75-38.75-38.75m12.06 301.45c-40.26 0-73.02-32.76-73.02-73.02s32.76-73.02 73.02-73.02 73.02 32.76 73.02 73.02-32.76 73.02-73.02 73.02m0-131.46c-32.22 0-58.44 26.22-58.44 58.44s26.22 58.43 58.44 58.43 58.44-26.21 58.44-58.43-26.22-58.44-58.44-58.44"/>
  <path d="M311.55 288.95c-12.81 0-23.23-10.42-23.23-23.23s10.42-23.24 23.23-23.24 23.24 10.42 23.24 23.24-10.42 23.23-23.24 23.23m0-37.72a14.5 14.5 0 1 0 14.49 14.49c0-7.98-6.5-14.49-14.49-14.49M323.62 487c-17.43 0-31.61-14.17-31.61-31.6s14.18-31.61 31.61-31.61 31.61 14.18 31.61 31.6-14.18 31.62-31.61 31.62m0-51.55a19.96 19.96 0 1 0 19.95 19.95c0-11-8.95-19.95-19.95-19.95m130.93-150.53H384.4a4.37 4.37 0 1 1 0-8.75h70.15a4.37 4.37 0 1 1 0 8.75M104.68 498.18c-1.21 0-2.3-.75-2.73-1.89l-24.83-65.57a2.9 2.9 0 0 1 2.73-3.95h49.3a2.92 2.92 0 0 1 2.73 3.94l-24.47 65.57a2.9 2.9 0 0 1-2.72 1.9zm-20.6-65.57 20.58 54.36 20.28-54.36z"/>
  <path d="m104.66 494.69 1.88-4.74-21.12-55.78h41.88l1.84-4.27H83.8l-1.22-.09-2.73-.12z"/>
  <path d="M104.66 496.15h-.01c-.6 0-1.14-.38-1.36-.94l-24.8-65a1.46 1.46 0 0 1 1.42-1.97l4 .2h45.23a1.46 1.46 0 0 1 1.34 2.04l-1.84 4.27c-.23.53-.76 3.07-1.34 3.07H90.76L110 484.88c.13.34-1.97 5.27-2.1 5.61l-1.9 4.74c-.21.55-.75.92-1.34.92M82 431.24l22.68 59.43.3-.73-20.93-55.25a1.46 1.46 0 0 1 1.37-1.98h40.92l.58-1.35zm86.1 66.94a2.9 2.9 0 0 1-2.72-1.89l-24.83-65.57a2.9 2.9 0 0 1 2.73-3.95h49.3a2.92 2.92 0 0 1 2.72 3.94l-24.46 65.57a2.9 2.9 0 0 1-2.72 1.9zm-20.6-65.57 20.59 54.36 20.28-54.36z"/>
  <path d="m168.09 494.69 1.88-4.74-21.12-55.78h41.88l1.84-4.27h-45.34l-1.22-.09-2.73-.12z"/>
  <path d="M168.08 496.15c-.6 0-1.14-.38-1.36-.94l-24.8-65a1.46 1.46 0 0 1 1.42-1.97l4 .2h45.23a1.46 1.46 0 0 1 1.34 2.04l-1.84 4.27c-.23.53-.76 3.07-1.34 3.07h-36.54l19.24 47.06c.13.34-1.97 5.27-2.1 5.61l-1.9 4.74c-.21.55-.75.92-1.35.92m-22.65-64.91 22.68 59.43.3-.73-20.93-55.25a1.46 1.46 0 0 1 1.37-1.98h40.92l.58-1.35zm335.25 66.94c-1.21 0-2.3-.75-2.73-1.89l-24.83-65.57a2.9 2.9 0 0 1 2.73-3.95h49.3a2.92 2.92 0 0 1 2.73 3.94l-24.47 65.57a2.9 2.9 0 0 1-2.72 1.9zm-20.6-65.57 20.58 54.36 20.28-54.36z"/>
  <path d="m480.65 494.69 1.89-4.74-21.12-55.78h41.88l1.84-4.27H459.8l-1.22-.09-2.73-.12z"/>
  <path d="M480.66 496.15h-.02c-.6 0-1.13-.38-1.35-.94l-24.8-65a1.46 1.46 0 0 1 1.42-1.97l4 .2h45.23a1.46 1.46 0 0 1 1.34 2.04l-1.84 4.27c-.23.53-.76 3.07-1.34 3.07h-36.54L486 484.88c.13.34-1.97 5.27-2.1 5.61l-1.9 4.74c-.21.55-.75.92-1.35.92ZM458 431.24l22.68 59.43.3-.73-20.93-55.25a1.46 1.46 0 0 1 1.37-1.98h40.92l.58-1.35zm86.1 66.94a2.9 2.9 0 0 1-2.72-1.89l-24.83-65.57a2.9 2.9 0 0 1 2.73-3.95h49.3a2.92 2.92 0 0 1 2.73 3.94l-24.47 65.57a2.9 2.9 0 0 1-2.72 1.9zm-20.6-65.57 20.59 54.36 20.28-54.36z"/>
  <path d="m544.09 494.69 1.88-4.74-21.12-55.78h41.88l1.84-4.27h-45.34l-1.22-.09-2.73-.12z"/>
  <path d="M544.09 496.15c-.6 0-1.14-.38-1.36-.94l-24.8-65a1.46 1.46 0 0 1 1.42-1.97l4 .2h45.23a1.46 1.46 0 0 1 1.34 2.04l-1.84 4.27c-.23.53-.76 3.07-1.34 3.07H530.2l19.24 47.06c.13.34-1.97 5.27-2.1 5.61l-1.9 4.74c-.21.55-.75.92-1.34.92m-22.66-64.91 22.68 59.43.3-.73-20.93-55.25a1.46 1.46 0 0 1 1.37-1.98h40.92l.58-1.35zm-28.87 179.64q-.61 0-1.21-.27L391.45 565a2.92 2.92 0 0 1-.92-4.64l46.86-50.37a2.93 2.93 0 0 1 4.69.58l53.04 95.98a2.92 2.92 0 0 1-2.56 4.32Zm-95-49.51 88.18 40.27-46.82-84.73z"/>
  <path d="m491.87 607.36-7.7-12.84-74.67-34.6c6.35-4.2 10.27-7.97 18-16.35 8.89-9.67 12.65-17.56 15.49-24.86l-3.22-6.5-43.1 46.32-1.27 1.14-2.74 2.67z"/>
  <path d="M491.87 608.82q-.3 0-.6-.13l-99.2-45.02a1.46 1.46 0 0 1-.42-2.37l4.04-3.85 43.01-46.24c.33-.34.8-.5 1.28-.44s.89.36 1.1.8l3.21 6.5c.19.36.2.79.06 1.17-2.86 7.35-6.15 14.49-14.67 24.9-6.49 7.94-8.74 9.66-14.04 13.42l67.95 32.89c.26.12 1.67 3.07 1.82 3.32l7.72 12.84a1.46 1.46 0 0 1-1.25 2.21Zm-96.66-46.92 93 42.2-5.07-8.45-74.26-34.4a1.46 1.46 0 0 1-.19-2.54c6.23-4.12 10.07-7.81 17.73-16.13 8.02-8.71 11.83-15.86 14.97-23.8l-2-4.03-41.65 44.77z"/>
  <path d="M385.92 676.9c-.95 0-1.87-.47-2.42-1.28l-61.52-90.98a2.92 2.92 0 0 1 1.63-4.44l66.24-18.59a2.9 2.9 0 0 1 3.7 2.94l-4.72 109.56a2.9 2.9 0 0 1-2.91 2.79m-56.84-92.17 54.3 80.3 4.16-96.71z"/>
  <path d="m385.64 673.11.3-12.82-48.12-71.4c7.7-.05 14.2-2.03 26.17-5.5a111 111 0 0 0 26.09-11.42l.64-7.23-60.92 17.1-1.68.32-3.72.85z"/>
  <path d="m392.18 564.88-.64 7.22c-.05.46-.34.81-.71 1.12-6.62 5.6-25.19 11.93-25.19 11.93-10 2.91-15.23 4.59-21.72 5l43.58 65.43c.16.25-.09 4.45-.09 4.75l-.32 12.82c0 .64-.44 1.17-1.03 1.35a1.45 1.45 0 0 1-1.63-.57l-61.23-90.1c-.27-.4-.34-.9-.16-1.36.19-.44.55-.78 1.03-.87l5.46-1.2 60.8-17.06c.45-.12.96-.02 1.32.27.37.33.58.78.53 1.27"/>
  <path d="M256.98 675.52q-.44 0-.88-.14a2.9 2.9 0 0 1-2.03-2.74l-1.31-109.81a2.92 2.92 0 0 1 3.8-2.82l65.53 20.93a2.92 2.92 0 0 1 1.48 4.49l-64.22 88.88a3 3 0 0 1-2.37 1.2m1.66-108.72 1.16 96.93 56.69-78.46z"/>
  <path d="m322.24 584.95-4.5 5.66c-.32.42-.82.62-1.33.55-10.34-1.23-20.9-1.85-30.78-5.11a207 207 0 0 1-16.02-6.27v76.67c0 .3-3.57 5.2-3.73 5.44l-7.46 10.66a1.4 1.4 0 0 1-1.2.62q-.2.01-.43-.04c-.6-.19-1-.76-1.03-1.38l-1.54-108.94c-.02-.48.23-.94.62-1.21.4-.28.9-.35 1.35-.17l5.21 2.02 60.15 19.2c.46.14.8.5.94.97s.05.96-.25 1.33"/>
  <path d="M152.3 607.03a2.91 2.91 0 0 1-2.51-4.4l56.07-94.43a2.92 2.92 0 0 1 4.72-.42l45.04 52a2.9 2.9 0 0 1-1.08 4.6L153.42 606.8a3 3 0 0 1-1.12.23m56.52-92.37L159.32 598l89.26-37.45z"/>
  <path d="m152.96 603.5 12.78-5.64 43.8-72.02c3.23 6.62 6.66 9.4 13.98 18.04a114 114 0 0 0 22.83 20.53l6.81-2.5-41.43-47.83-1-1.38-2.36-3z"/>
  <path d="M152.96 604.95a1.46 1.46 0 0 1-1.25-2.2l55.4-93.8a1.46 1.46 0 0 1 2.4-.16l3.4 4.44 41.35 47.72a1.46 1.46 0 0 1-.6 2.33l-6.8 2.5c-.45.16-.94.1-1.33-.17a115 115 0 0 1-23.12-20.79c-1.94-2.29-3.6-4.16-5.07-5.8-3.35-3.78-3.9-4-6.04-7.74l-38.19 65.03c-.15.26-6.5 2.77-6.78 2.89l-12.78 5.63q-.29.12-.59.12m55.58-92.68-52.01 88.06 8.2-3.62 43.57-71.63a1.46 1.46 0 0 1 2.55.12c2.29 4.68 4.7 7.4 8.67 11.88 1.48 1.66 3.16 3.55 5.11 5.86a112 112 0 0 0 21.92 19.84l4.13-1.51-40.05-46.23z"/>
  <path d="M440.66 489.05c-1.35 6.84-1.2 10.06-1.09 14.83.08 3.22 2.43 6.13 3.6 8.74l-46.57 54.63c-1.8-.52-2.14-.93-2.86-.28-.52.48-.43 2.45-.58 4.4l-67.62 18.41c-1.52-1.89-1.4-2.38-2.73-2.46-1.06.12-1.86 2.13-3.32 3.75l-66.58-22.29c-.19-1.63.07-2.84-.46-3.08-.79-.36-.82-.08-3.53 1.03l-45.48-54.3c1.36-2.52 3.55-5.44 4.27-9.85.77-4.76 1.14-7.67.86-8.73l22.4 15.7 33.23 32.6 43 18.07 58.35-3.32 31.35-21.6 24.1-31.15z"/>
  <path d="M591.33 402c-13.39-9.77-100.56-10.72-124.92-14.08s-44.54-10.74-53.8-17.31c-7.13-5.07-27.75-23.57-21.27-35.52 5.13-9.44 50.73-24.42 69.67-30.3 1.4-.43 1.06-2.49-.4-2.49 0 0-84.8-.29-85.13.24a10 10 0 0 0-3.46 1c-2.5 1.52-3.05 7.88-7.94 13.31-13.23 14.7-31.84 17.36-51.5 17.36-37.88 0-68.71-30.8-68.71-68.68s30.83-68.72 68.71-68.72c20.35 0 48.39 13.5 57.44 36.36 6.5 16.4 1.7 19.8 6.47 24.34.64.61 2.65.82 4.35.9.06.49 81.29-.13 81.29-.13 1.75-.01 2.39-2.32.87-3.2-14.63-8.54-54.4-31.87-63.47-38.43-3.94-2.84-7.9-5.25-12.63-10.13-20.46-21.12-44.24-35.96-74.32-35.96-52.38 0-94.96 42.61-94.96 94.97 0 25.37 12.76 46.18 26.3 65.47 15.3 21.83-7.15 36-10.5 38.68-6.3 5.04-27.44 15.22-51.8 18.58s-111.53 4.31-124.91 14.09c-11.63 8.5-13.72 84.62-13.72 84.62l13.54 2.12s2.85-61.41 12.72-68.74c13.5-10.02 138.2-24.15 142.24-13.3.68 1.82.58 3.92.14 6.12-5 13.2-7.75 27.5-7.75 42.46 0 66.26 53.72 119.98 120.02 119.98s119.99-53.72 119.99-119.98c0-13.12-2.14-25.74-6.03-37.55-1.28-4-2.53-8.12-1.32-11.38 4.04-10.84 128.74 3.29 142.24 13.31 9 6.67 12.16 58.2 12.66 67.35.04.75.72 1.28 1.46 1.17l11.03-1.72c.63-.1 1.1-.64 1.08-1.29-.32-9.4-2.88-75.63-13.68-83.52M323.9 550.91c-52.64 0-95.28-42.67-95.28-95.28s42.64-95.29 95.28-95.29 95.28 42.64 95.28 95.29-42.67 95.28-95.28 95.28"/>
  <path d="M323.9 577.07c-66.98 0-121.48-54.48-121.48-121.44 0-14.76 2.64-29.22 7.85-42.98q.6-3.05-.14-5.1c-.01-.02-.28-.68-2.58-1.36-21.46-6.35-126.16 6.96-137.43 15.33-7.64 5.67-11.35 50.75-12.14 67.64a1.46 1.46 0 0 1-1.68 1.37l-13.53-2.11a1.46 1.46 0 0 1-1.23-1.49c.21-7.86 2.45-77.1 14.3-85.76 9.5-6.93 53.03-9.49 88-11.54 16.06-.95 29.93-1.76 37.58-2.82 24.13-3.32 45.18-13.54 51.09-18.27l1.01-.76c5.6-4.16 22.61-16.8 9.2-35.94-12.85-18.33-26.56-40.08-26.56-66.31 0-53.17 43.26-96.43 96.42-96.43 26.98 0 51.63 11.91 75.36 36.4 3.74 3.86 7.01 6.15 10.18 8.37l2.27 1.6c9.17 6.63 50.8 31.03 63.35 38.35a3.1 3.1 0 0 1 1.46 3.55 3.16 3.16 0 0 1-3.06 2.36s-20.31.16-40.63.25c-28.82.14-37.84.18-40.72-.33v.21c-3.66-.15-4.76-.77-5.3-1.3-2.68-2.55-2.82-4.9-3.01-8.16-.2-3.5-.48-8.28-3.81-16.7-8.67-21.88-35.86-35.43-56.09-35.43-37.08 0-67.25 30.17-67.25 67.25s30.17 67.23 67.25 67.23c18.3 0 37.07-2.04 50.42-16.87 2.48-2.76 3.8-5.84 4.86-8.32 1.04-2.42 1.86-4.33 3.4-5.27.92-.56 2.2-.94 4.01-1.2l.03.17c3.19-.52 17.23-.65 85.32-.41 1.38 0 2.5.96 2.7 2.33a2.65 2.65 0 0 1-1.88 3c-39.72 12.33-65.45 23.4-68.81 29.6-5.53 10.18 11.99 27.36 20.83 33.64 8.45 6 28.17 13.6 53.15 17.05 7.66 1.06 21.52 1.87 37.58 2.81 34.97 2.06 78.5 4.61 88 11.55 10.91 7.97 13.68 66.8 14.27 84.65a2.7 2.7 0 0 1-2.3 2.77l-11.03 1.72a2.7 2.7 0 0 1-3.15-2.53c-1.6-29.71-5.96-61.73-12.06-66.26-11.28-8.37-115.97-21.68-137.43-15.33-2.3.68-2.57 1.34-2.58 1.36-1.08 2.9.27 7.07 1.35 10.42a121 121 0 0 1 6.09 38c0 66.96-54.48 121.44-121.45 121.44M188.75 401.73c8.79 0 15.73.51 19.63 1.67q3.73 1.1 4.48 3.14c.7 1.9.77 4.09.2 6.91a119 119 0 0 0-7.72 42.18c0 65.35 53.19 118.53 118.56 118.53s118.53-53.18 118.53-118.53c0-12.62-2-25.1-5.95-37.1-1.22-3.79-2.73-8.5-1.3-12.33q.73-2.05 4.48-3.14c20.62-6.11 126.6 5.84 140 15.78 9.22 6.85 12.46 54.12 13.23 68.44l10.81-1.91c-1.07-27.52-4.85-76.07-13.23-82.19-8.8-6.43-53.68-9.06-86.45-10.98-16.12-.95-30.04-1.77-37.8-2.84-22.4-3.09-43.78-9.98-54.45-17.56-7.87-5.59-28.74-24.45-21.7-37.4 5.09-9.39 45.1-23.07 69.35-30.64-32.5-.11-80.4-.15-83.55.19l-.19.03c-1.7.24-2.52.57-2.9.8-.75.46-1.47 2.15-2.24 3.93-1.14 2.68-2.57 6-5.37 9.12-14.16 15.72-34.53 17.84-52.59 17.84-38.69 0-70.17-31.47-70.17-70.14s31.48-70.18 70.17-70.18c21.18 0 49.68 14.26 58.8 37.28 3.5 8.85 3.81 14.12 4.01 17.6.18 3.07.26 4.47 2.1 6.22.01 0 .65.38 3.42.5q.17 0 .32.05c3.18.3 49.92.05 80.89-.18.06 0 .21 0 .27-.2.04-.18-.06-.25-.12-.28-16.11-9.4-54.57-31.99-63.6-38.5q-1.1-.8-2.22-1.58c-3.28-2.3-6.67-4.67-10.6-8.73-23.48-24.23-46.76-35.5-73.27-35.5-51.55 0-93.5 41.94-93.5 93.5 0 25.38 13.43 46.67 26.03 64.64 9.98 14.23 6.66 27.67-9.85 39.95l-.93.7c-7.09 5.67-28.68 15.6-52.5 18.88-7.78 1.07-21.7 1.9-37.8 2.84-32.78 1.92-77.66 4.56-86.46 10.98-8.88 6.5-12.4 60.33-13.08 82.21l10.66 1.67c.58-11.17 3.7-61.14 13.23-68.22 10.86-8.06 82.63-17.44 120.37-17.44M323.9 552.38c-53.34 0-96.74-43.4-96.74-96.74s43.4-96.74 96.74-96.74 96.74 43.4 96.74 96.74-43.4 96.74-96.74 96.74m0-190.57c-51.74 0-93.83 42.09-93.83 93.83s42.1 93.82 93.83 93.82 93.83-42.09 93.83-93.82-42.1-93.83-93.83-93.83"/>
</svg>
